<svg id="Layer_1" xmlns="http://www.w3.org/2000/svg" viewBox="0 0 44.7 39.5"><style>.st0{fill:#fff}</style><path class="st0" d="M21 31.6c-6.6 2.5-12.3 4.6-16.6.6-1-.9-2.7-.9-3.7 0-.4.5-.7 1.1-.7 1.8s.3 1.3.8 1.8c2.9 2.7 6.1 3.7 9.3 3.7 4.3 0 8.7-1.7 12.9-3.2 6.8-2.6 12.7-4.8 17.3-.5 1 1 2.7 1 3.7 0 .5-.5.8-1.1.8-1.8s-.3-1.3-.8-1.8c-7-6.6-15.5-3.4-23-.6zM10.1 11.1c4.3 0 8.7-1.7 12.9-3.2 6.8-2.6 12.7-4.8 17.3-.5 1 1 2.7 1 3.7 0 .5-.5.8-1.1.8-1.8s-.3-1.3-.8-1.8C37-2.7 28.5.5 21 3.3l.1.3-.1-.3c-6.6 2.4-12.3 4.6-16.5.6-1-.9-2.7-.9-3.7 0C.3 4.4 0 5 0 5.7S.3 7 .8 7.5c2.9 2.7 6 3.6 9.3 3.6zM21 17.4C14.4 19.9 8.7 22 4.4 18c-1-.9-2.7-.9-3.7 0-.4.5-.7 1.2-.7 1.8s.3 1.3.8 1.8c2.9 2.7 6.1 3.7 9.3 3.7 4.3 0 8.7-1.7 12.9-3.2 6.8-2.6 12.7-4.8 17.3-.5 1 1 2.7 1 3.7 0 .5-.5.8-1.1.8-1.8s-.3-1.3-.8-1.8c-7-6.5-15.5-3.4-23-.6z"/></svg>